<svg xmlns="http://www.w3.org/2000/svg" xmlns:xlink="http://www.w3.org/1999/xlink" width="94" zoomAndPan="magnify" viewBox="0 0 70.5 77.249999" height="103" preserveAspectRatio="xMidYMid meet" version="1.0"><defs><g/></defs><g fill="#6562df" fill-opacity="1"><g transform="translate(9.272166, 50.955217)"><g><path d="M 12.796875 -7.171875 C 12.796875 -6.046875 12.867188 -5.132812 13.015625 -4.4375 C 13.160156 -3.738281 13.460938 -3.203125 13.921875 -2.828125 C 14.378906 -2.453125 15.03125 -2.191406 15.875 -2.046875 C 16.726562 -1.898438 17.867188 -1.8125 19.296875 -1.78125 L 19.296875 0 L 1.5625 0 L 1.5625 -1.78125 C 2.539062 -1.8125 3.34375 -1.898438 3.96875 -2.046875 C 4.59375 -2.191406 5.066406 -2.441406 5.390625 -2.796875 C 5.710938 -3.160156 5.929688 -3.664062 6.046875 -4.3125 C 6.171875 -4.96875 6.234375 -5.816406 6.234375 -6.859375 L 6.234375 -27.453125 C 6.234375 -28.492188 6.179688 -29.332031 6.078125 -29.96875 C 5.972656 -30.601562 5.769531 -31.109375 5.46875 -31.484375 C 5.175781 -31.859375 4.753906 -32.109375 4.203125 -32.234375 C 3.660156 -32.367188 2.941406 -32.46875 2.046875 -32.53125 L 2.046875 -34.3125 L 29.328125 -34.3125 L 29.859375 -24.90625 L 27.984375 -24.90625 C 27.804688 -26.1875 27.546875 -27.265625 27.203125 -28.140625 C 26.859375 -29.015625 26.375 -29.726562 25.75 -30.28125 C 25.132812 -30.832031 24.332031 -31.222656 23.34375 -31.453125 C 22.363281 -31.691406 21.160156 -31.8125 19.734375 -31.8125 L 13.59375 -31.8125 C 13.0625 -31.8125 12.796875 -31.5625 12.796875 -31.0625 L 12.796875 -18.1875 C 14.597656 -18.1875 16.070312 -18.257812 17.21875 -18.40625 C 18.363281 -18.550781 19.273438 -18.835938 19.953125 -19.265625 C 20.640625 -19.703125 21.128906 -20.289062 21.421875 -21.03125 C 21.722656 -21.769531 21.9375 -22.75 22.0625 -23.96875 L 23.703125 -23.96875 L 23.703125 -10.03125 L 22.0625 -10.03125 C 21.882812 -11.269531 21.628906 -12.269531 21.296875 -13.03125 C 20.972656 -13.789062 20.476562 -14.367188 19.8125 -14.765625 C 19.144531 -15.171875 18.242188 -15.445312 17.109375 -15.59375 C 15.984375 -15.738281 14.546875 -15.8125 12.796875 -15.8125 Z M 12.796875 -7.171875 "/></g></g></g><g fill="#6562df" fill-opacity="1"><g transform="translate(24.707723, 60.050123)"><g/></g></g><g fill="#6562df" fill-opacity="1"><g transform="translate(33.551548, 60.050123)"><g><path d="M 1.921875 -9.09375 L 3.3125 -9.09375 C 3.644531 -6.832031 4.546875 -5.050781 6.015625 -3.75 C 7.492188 -2.457031 9.316406 -1.8125 11.484375 -1.8125 C 12.359375 -1.8125 13.164062 -1.914062 13.90625 -2.125 C 14.644531 -2.34375 15.273438 -2.648438 15.796875 -3.046875 C 16.316406 -3.441406 16.71875 -3.90625 17 -4.4375 C 17.289062 -4.96875 17.4375 -5.566406 17.4375 -6.234375 C 17.4375 -6.804688 17.347656 -7.300781 17.171875 -7.71875 C 16.992188 -8.132812 16.65625 -8.535156 16.15625 -8.921875 C 15.65625 -9.316406 14.96875 -9.71875 14.09375 -10.125 C 13.226562 -10.53125 12.109375 -10.992188 10.734375 -11.515625 C 7.953125 -12.585938 5.894531 -13.828125 4.5625 -15.234375 C 3.226562 -16.648438 2.5625 -18.320312 2.5625 -20.25 C 2.5625 -21.363281 2.773438 -22.382812 3.203125 -23.3125 C 3.628906 -24.238281 4.226562 -25.035156 5 -25.703125 C 5.78125 -26.367188 6.707031 -26.882812 7.78125 -27.25 C 8.863281 -27.625 10.0625 -27.8125 11.375 -27.8125 C 12.582031 -27.8125 13.722656 -27.617188 14.796875 -27.234375 C 15.867188 -26.859375 16.925781 -26.289062 17.96875 -25.53125 L 18.609375 -27.3125 L 19.46875 -27.3125 L 19.859375 -19.609375 L 18.46875 -19.609375 C 17.894531 -21.554688 17.003906 -23.046875 15.796875 -24.078125 C 14.585938 -25.117188 13.1875 -25.640625 11.59375 -25.640625 C 10.113281 -25.640625 8.914062 -25.273438 8 -24.546875 C 7.082031 -23.828125 6.625 -22.894531 6.625 -21.75 C 6.625 -21.25 6.707031 -20.800781 6.875 -20.40625 C 7.039062 -20.019531 7.347656 -19.644531 7.796875 -19.28125 C 8.253906 -18.925781 8.875 -18.566406 9.65625 -18.203125 C 10.445312 -17.835938 11.457031 -17.425781 12.6875 -16.96875 C 14.351562 -16.332031 15.773438 -15.6875 16.953125 -15.03125 C 18.128906 -14.375 19.09375 -13.671875 19.84375 -12.921875 C 20.59375 -12.171875 21.144531 -11.378906 21.5 -10.546875 C 21.851562 -9.722656 22.03125 -8.8125 22.03125 -7.8125 C 22.03125 -6.59375 21.769531 -5.484375 21.25 -4.484375 C 20.726562 -3.492188 20 -2.640625 19.0625 -1.921875 C 18.125 -1.210938 17.003906 -0.65625 15.703125 -0.25 C 14.410156 0.15625 12.976562 0.359375 11.40625 0.359375 C 9.976562 0.359375 8.691406 0.164062 7.546875 -0.21875 C 6.410156 -0.613281 5.238281 -1.253906 4.03125 -2.140625 L 3.3125 0 L 2.453125 0 Z M 1.921875 -9.09375 "/></g></g></g></svg>